<svg width="18" height="18" viewBox="0 0 18 18" fill="none" xmlns="http://www.w3.org/2000/svg">
<path d="M15.8545 2.95925C14.9451 2.05877 13.7149 1.55688 12.435 1.56405C11.1553 1.57123 9.93071 2.0868 9.03146 2.99752C8.14379 2.061 6.91653 1.5215 5.62638 1.50064C4.33641 1.47962 3.09222 1.97913 2.17464 2.8863C1.25724 3.7936 0.743717 5.03197 0.750058 6.32229C0.756379 7.61244 1.28204 8.84587 2.20849 9.74394L8.626 16.1575C8.73311 16.266 8.87918 16.327 9.03156 16.327C9.18394 16.327 9.33001 16.266 9.43712 16.1575L15.8546 9.74394C16.7485 8.84106 17.25 7.62198 17.25 6.35151C17.25 5.08117 16.7484 3.86209 15.8546 2.95925H15.8545ZM15.0432 8.94029L9.0315 14.9406L3.46374 9.37282L3.01993 8.94043C2.33812 8.25434 1.95563 7.32639 1.95563 6.35926C1.95563 5.39213 2.33813 4.46436 3.01993 3.77809C4.69223 2.1326 7.17565 2.46931 8.62967 4.22584C8.74225 4.32509 8.88542 4.38318 9.03524 4.39035C9.18557 4.38113 9.32839 4.32185 9.44097 4.22208C12.8582 0.17722 18.5105 5.02175 15.0433 8.94052L15.0432 8.94029Z" fill="#BABAC0"/>
</svg>
