<svg width="20" height="20" viewBox="0 0 20 20" fill="none" xmlns="http://www.w3.org/2000/svg">
<path d="M9.32565 2.5V4.04062C9.04758 4.14379 8.80063 4.3166 8.60843 4.5425C8.41624 4.76841 8.28524 5.03986 8.22797 5.33088L4.45346 5.8701L4.35717 5.90861H4.33791L4.26088 5.94713C4.25577 5.94713 4.25087 5.94916 4.24726 5.95277C4.24365 5.95638 4.24162 5.96128 4.24162 5.96639L4.16459 6.02416H4.14533L4.08756 6.10119C4.08503 6.10119 4.08253 6.10169 4.08019 6.10266C4.07785 6.10362 4.07573 6.10504 4.07394 6.10683C4.07215 6.10862 4.07074 6.11074 4.06977 6.11308C4.0688 6.11542 4.0683 6.11792 4.0683 6.12045L4.02979 6.17822C4.02979 6.19748 4.02979 6.19748 4.01053 6.19748L0.871523 13.2651C0.849326 13.3402 0.836392 13.4178 0.833008 13.4962C0.833008 14.4819 1.22459 15.4273 1.92161 16.1243C2.61864 16.8213 3.56401 17.2129 4.54975 17.2129C5.53548 17.2129 6.48085 16.8213 7.17787 16.1243C7.8749 15.4273 8.26648 14.4819 8.26648 13.4962C8.26537 13.4157 8.24559 13.3366 8.20871 13.2651L5.37783 6.91001L7.78504 6.56338L8.40129 6.46709C8.54622 6.73841 8.76304 6.96459 9.028 7.12085C9.29296 7.2771 9.59582 7.3574 9.90339 7.35294C10.2946 7.35317 10.674 7.21958 10.9788 6.97437C11.2836 6.72915 11.4953 6.38706 11.5788 6.0049L14.506 5.58123L11.7906 11.6667C11.7515 11.7442 11.7317 11.8301 11.7329 11.917C11.7329 12.9028 12.1245 13.8481 12.8215 14.5451C13.5185 15.2422 14.4639 15.6338 15.4496 15.6338C16.4353 15.6338 17.3807 15.2422 18.0777 14.5451C18.7748 13.8481 19.1663 12.9028 19.1663 11.917C19.1644 11.8323 19.1514 11.7481 19.1278 11.6667L15.9888 4.61835C15.9432 4.52328 15.8724 4.44251 15.7841 4.3848C15.6959 4.32709 15.5935 4.29464 15.4881 4.29097H15.3726L11.4247 4.8687C11.2191 4.48894 10.8844 4.19524 10.4811 4.04062V2.5H9.32565ZM4.54975 7.8729L6.78364 12.9184H2.29659L4.54975 7.8729ZM4.54975 16.0574C3.97036 16.0558 3.40836 15.8593 2.95423 15.4995C2.50011 15.1397 2.18028 14.6376 2.04624 14.0739H7.03399C6.90385 14.636 6.58773 15.1377 6.13684 15.4977C5.68595 15.8577 5.12672 16.0549 4.54975 16.0574ZM9.90339 6.19748C9.83097 6.20007 9.75878 6.18803 9.69112 6.1621C9.62346 6.13616 9.56172 6.09685 9.50959 6.04652C9.45746 5.99619 9.41601 5.93587 9.38772 5.86916C9.35943 5.80245 9.34487 5.73072 9.34491 5.65826C9.34491 5.51015 9.40375 5.3681 9.50849 5.26336C9.61322 5.15863 9.75527 5.09979 9.90339 5.09979C10.0515 5.09979 10.1936 5.15863 10.2983 5.26336C10.403 5.3681 10.4619 5.51015 10.4619 5.65826C10.4619 5.73072 10.4473 5.80245 10.4191 5.86916C10.3908 5.93587 10.3493 5.99619 10.2972 6.04652C10.2451 6.09685 10.1833 6.13616 10.1157 6.1621C10.048 6.18803 9.9758 6.20007 9.90339 6.19748ZM17.7028 11.3393H13.2157L15.4496 6.27451L17.7028 11.3393ZM15.4496 14.4783C14.8726 14.4758 14.3134 14.2786 13.8625 13.9186C13.4116 13.5586 13.0955 13.0569 12.9654 12.4947H17.9531C17.8191 13.0584 17.4992 13.5606 17.0451 13.9204C16.591 14.2802 16.029 14.4767 15.4496 14.4783Z" fill="#BABAC0"/>
</svg>
